<svg width="15" height="15" viewBox="0 0 15 15" fill="none" xmlns="http://www.w3.org/2000/svg">
<path fill-rule="evenodd" clip-rule="evenodd" d="M11.4494 9.02057C12.2287 8.01579 12.5961 6.75184 12.4766 5.48586C12.3571 4.21987 11.7598 3.04696 10.8062 2.20573C9.85265 1.3645 8.61441 0.918143 7.34341 0.957473C6.07241 0.996803 4.86413 1.51886 3.96438 2.41744C3.06386 3.31665 2.54009 4.52539 2.49982 5.79736C2.45955 7.06932 2.90581 8.30878 3.74765 9.26315C4.5895 10.2175 5.76357 10.815 7.03062 10.9337C8.29766 11.0525 9.56233 10.6837 10.5669 9.90244L10.5938 9.93057L13.245 12.5824C13.3031 12.6405 13.372 12.6866 13.4479 12.718C13.5238 12.7494 13.6051 12.7656 13.6872 12.7656C13.7693 12.7656 13.8506 12.7494 13.9265 12.718C14.0024 12.6866 14.0713 12.6405 14.1294 12.5824C14.1875 12.5244 14.2335 12.4554 14.2649 12.3796C14.2964 12.3037 14.3125 12.2224 14.3125 12.1403C14.3125 12.0581 14.2964 11.9768 14.2649 11.9009C14.2335 11.8251 14.1875 11.7561 14.1294 11.6981L11.4775 9.04682C11.4684 9.03781 11.459 9.02906 11.4494 9.02057ZM10.1519 3.30182C10.5048 3.64899 10.7854 4.0626 10.9776 4.51878C11.1699 4.97496 11.2699 5.46468 11.2719 5.95971C11.2739 6.45473 11.1779 6.94525 10.9894 7.40298C10.8009 7.86071 10.5236 8.27659 10.1736 8.62663C9.82353 8.97666 9.40765 9.25393 8.94992 9.44244C8.49219 9.63095 8.00167 9.72696 7.50665 9.72494C7.01162 9.72293 6.5219 9.62292 6.06572 9.43069C5.60954 9.23847 5.19593 8.95782 4.84876 8.60494C4.15496 7.89975 3.76792 6.94897 3.77195 5.95971C3.77598 4.97044 4.17075 4.02285 4.87027 3.32332C5.56979 2.6238 6.51738 2.22903 7.50665 2.22501C8.49591 2.22098 9.44669 2.60802 10.1519 3.30182Z" fill="black"/>
</svg>
